<svg width="16" height="16" viewBox="0 0 16 16" fill="none" xmlns="http://www.w3.org/2000/svg">
<path d="M7.67998 15.075L7.42998 14.895C7.27998 14.785 7.05998 14.615 6.79998 14.405C6.10998 13.845 5.47998 13.235 4.90998 12.615C3.04998 10.565 2.09998 8.54499 2.09998 6.60499C2.09998 3.35499 4.74998 0.704987 7.99998 0.704987C11.25 0.704987 13.9 3.35499 13.9 6.60499C13.9 8.54499 12.95 10.565 11.08 12.615C10.37 13.395 9.65998 14.015 9.18998 14.405C8.92998 14.615 8.71998 14.785 8.55998 14.895L8.37998 15.025L7.98998 15.295L7.66998 15.075H7.67998ZM7.99998 1.84499C5.36998 1.83499 3.22998 3.97499 3.22998 6.60499C3.22998 8.66499 4.59998 10.595 5.74998 11.845C6.41998 12.575 7.07998 13.165 7.51998 13.525C7.67998 13.655 7.81998 13.765 7.92998 13.855L7.98998 13.905L8.04998 13.855C8.16998 13.765 8.30998 13.655 8.45998 13.525C8.89998 13.165 9.56998 12.575 10.24 11.845C11.39 10.585 12.76 8.66499 12.76 6.60499C12.76 3.97499 10.62 1.83499 7.98998 1.83499L7.99998 1.84499ZM7.99998 9.17499C6.57998 9.17499 5.42998 8.02499 5.42998 6.60499C5.42998 5.18499 6.57998 4.03499 7.99998 4.03499C9.41998 4.03499 10.57 5.18499 10.57 6.60499C10.57 8.02499 9.41998 9.17499 7.99998 9.17499ZM7.99998 5.17499C7.20998 5.17499 6.56998 5.81499 6.56998 6.60499C6.56998 7.39499 7.20998 8.03499 7.99998 8.03499C8.78998 8.03499 9.42998 7.39499 9.42998 6.60499C9.42998 5.81499 8.78998 5.17499 7.99998 5.17499Z" fill="#666666"/>
</svg>
