<svg width="16" height="16" viewBox="0 0 16 16" fill="none" xmlns="http://www.w3.org/2000/svg">
<path d="M7.99999 14.56C4.37999 14.56 1.42999 11.61 1.42999 7.98999C1.42999 4.36999 4.37999 1.42999 7.99999 1.42999C11.62 1.42999 14.57 4.37999 14.57 7.99999C14.57 11.62 11.62 14.57 7.99999 14.57V14.56ZM7.99999 2.55999C4.99999 2.55999 2.55999 4.99999 2.55999 7.99999C2.55999 11 4.99999 13.43 7.98999 13.43C10.98 13.43 13.42 10.99 13.42 7.99999C13.42 5.00999 10.99 2.55999 7.99999 2.55999ZM7.39999 8.19999L7.42999 4.42999H8.55999V7.71999L10.8 9.98999L9.99999 10.79L7.39999 8.18999V8.19999Z" fill="#666666"/>
</svg>
